<svg width="31" height="31" viewBox="0 0 31 31" fill="none" xmlns="http://www.w3.org/2000/svg">
<path fill-rule="evenodd" clip-rule="evenodd" d="M30.0536 1.70711C30.4441 1.31658 30.4441 0.683417 30.0536 0.292893C29.663 -0.0976311 29.0299 -0.0976311 28.6394 0.292893L15.1732 13.759L1.70711 0.292893C1.31658 -0.0976311 0.683417 -0.0976311 0.292893 0.292893C-0.0976311 0.683417 -0.0976311 1.31658 0.292893 1.70711L13.759 15.1732L0.292893 28.6394C-0.0976311 29.0299 -0.0976311 29.663 0.292893 30.0536C0.683417 30.4441 1.31658 30.4441 1.70711 30.0536L15.1732 16.5874L28.6394 30.0536C29.0299 30.4441 29.663 30.4441 30.0536 30.0536C30.4441 29.663 30.4441 29.0299 30.0536 28.6394L16.5874 15.1732L30.0536 1.70711Z" fill="#154734"/>
</svg>
