<svg width="85" height="85" viewBox="0 0 85 85" fill="none" xmlns="http://www.w3.org/2000/svg">
<path d="M43.2111 19.2267C43.2111 18.8339 42.8927 18.5155 42.5 18.5155C42.1073 18.5155 41.7889 18.8339 41.7889 19.2267V42.5C41.7889 42.7694 41.9411 43.0156 42.182 43.1361L57.6975 50.8938C58.0488 51.0695 58.476 50.9271 58.6516 50.5758C58.8272 50.2245 58.6849 49.7974 58.3336 49.6217L43.2111 42.0605V19.2267Z" stroke="#BD8B13" stroke-width="5" stroke-linecap="round" stroke-linejoin="round"/>
<path fill-rule="evenodd" clip-rule="evenodd" d="M42.5 3C20.6847 3 3 20.6847 3 42.5C3 64.3153 20.6847 82 42.5 82C64.3153 82 82 64.3153 82 42.5C82 20.6847 64.3153 3 42.5 3ZM4.42226 42.5C4.42226 21.4702 21.4702 4.42226 42.5 4.42226C63.5298 4.42226 80.5777 21.4702 80.5777 42.5C80.5777 63.5298 63.5298 80.5777 42.5 80.5777C21.4702 80.5777 4.42226 63.5298 4.42226 42.5Z" stroke="#BD8B13" stroke-width="5" stroke-linecap="round" stroke-linejoin="round"/>
</svg>
