<svg width="43" height="43" viewBox="0 0 43 43" fill="none" xmlns="http://www.w3.org/2000/svg">
<path fill-rule="evenodd" clip-rule="evenodd" d="M41.2168 22.1732C41.7691 22.1732 42.2168 21.7255 42.2168 21.1732C42.2168 20.6209 41.7691 20.1732 41.2168 20.1732L22.1729 20.1732L22.1729 1.12926C22.1729 0.576971 21.7251 0.129256 21.1729 0.129256C20.6206 0.129256 20.1729 0.576971 20.1729 1.12926L20.1729 20.1732L1.12888 20.1732C0.576595 20.1732 0.128879 20.6209 0.12888 21.1732C0.12888 21.7255 0.576595 22.1732 1.12888 22.1732L20.1729 22.1732V41.2172C20.1729 41.7695 20.6206 42.2172 21.1729 42.2172C21.7251 42.2172 22.1729 41.7695 22.1729 41.2172V22.1732L41.2168 22.1732Z" fill="#154734"/>
</svg>
