<svg width="76" height="85" viewBox="0 0 76 85" fill="none" xmlns="http://www.w3.org/2000/svg">
<path fill-rule="evenodd" clip-rule="evenodd" d="M22.1104 21.193C22.1104 12.2955 29.3231 5.08276 38.2206 5.08276C47.118 5.08276 54.3308 12.2955 54.3308 21.193C54.3308 30.0904 47.118 37.3032 38.2206 37.3032C29.3231 37.3032 22.1104 30.0904 22.1104 21.193ZM38.2206 3.08276C28.2186 3.08276 20.1104 11.191 20.1104 21.193C20.1104 31.1949 28.2186 39.3032 38.2206 39.3032C48.2225 39.3032 56.3308 31.1949 56.3308 21.193C56.3308 11.191 48.2225 3.08276 38.2206 3.08276ZM21.1102 54.4134C16.3071 54.4134 11.7007 56.3214 8.30435 59.7177C4.90803 63.114 3 67.7204 3 72.5236V81.0787C3 81.6309 3.44772 82.0787 4 82.0787C4.55228 82.0787 5 81.6309 5 81.0787V72.5236C5 68.2509 6.69732 64.1532 9.71857 61.1319C12.7398 58.1107 16.8375 56.4134 21.1102 56.4134H55.3306C59.6033 56.4134 63.701 58.1107 66.7222 61.1319C69.7435 64.1532 71.4408 68.2509 71.4408 72.5236V81.0787C71.4408 81.6309 71.8885 82.0787 72.4408 82.0787C72.9931 82.0787 73.4408 81.6309 73.4408 81.0787V72.5236C73.4408 67.7204 71.5328 63.114 68.1364 59.7177C64.7401 56.3214 60.1337 54.4134 55.3306 54.4134H21.1102Z" fill="#BD8B13"/>
<path d="M9.71857 61.1319L11.4863 62.8997L9.71857 61.1319ZM66.7222 61.1319L68.49 59.3642L68.49 59.3642L66.7222 61.1319ZM68.1364 59.7177L66.3687 61.4855V61.4855L68.1364 59.7177ZM38.2206 2.58276C27.9424 2.58276 19.6104 10.9148 19.6104 21.193H24.6104C24.6104 13.6762 30.7038 7.58276 38.2206 7.58276V2.58276ZM56.8308 21.193C56.8308 10.9148 48.4987 2.58276 38.2206 2.58276V7.58276C45.7373 7.58276 51.8308 13.6763 51.8308 21.193H56.8308ZM38.2206 39.8032C48.4987 39.8032 56.8308 31.4711 56.8308 21.193H51.8308C51.8308 28.7097 45.7373 34.8032 38.2206 34.8032V39.8032ZM19.6104 21.193C19.6104 31.4711 27.9424 39.8032 38.2206 39.8032V34.8032C30.7038 34.8032 24.6104 28.7097 24.6104 21.193H19.6104ZM22.6104 21.193C22.6104 12.5717 29.5993 5.58276 38.2206 5.58276V0.582756C26.8379 0.582756 17.6104 9.81026 17.6104 21.193H22.6104ZM38.2206 36.8032C29.5993 36.8032 22.6104 29.8142 22.6104 21.193H17.6104C17.6104 32.5757 26.8379 41.8032 38.2206 41.8032V36.8032ZM53.8308 21.193C53.8308 29.8142 46.8418 36.8032 38.2206 36.8032V41.8032C49.6033 41.8032 58.8308 32.5757 58.8308 21.193H53.8308ZM38.2206 5.58276C46.8418 5.58276 53.8308 12.5717 53.8308 21.193H58.8308C58.8308 9.81026 49.6033 0.582756 38.2206 0.582756V5.58276ZM10.0721 61.4855C12.9996 58.558 16.9701 56.9134 21.1102 56.9134V51.9134C15.644 51.9134 10.4017 54.0848 6.53659 57.9499L10.0721 61.4855ZM5.5 72.5236C5.5 68.3835 7.14464 64.413 10.0721 61.4855L6.53659 57.9499C2.67142 61.8151 0.5 67.0574 0.5 72.5236H5.5ZM5.5 81.0787V72.5236H0.5V81.0787H5.5ZM4 79.5787C4.82843 79.5787 5.5 80.2502 5.5 81.0787H0.5C0.5 83.0117 2.067 84.5787 4 84.5787V79.5787ZM2.5 81.0787C2.5 80.2502 3.17157 79.5787 4 79.5787V84.5787C5.933 84.5787 7.5 83.0117 7.5 81.0787H2.5ZM2.5 72.5236V81.0787H7.5V72.5236H2.5ZM7.9508 59.3642C4.46071 62.8542 2.5 67.5878 2.5 72.5236H7.5C7.5 68.9139 8.93393 65.4521 11.4863 62.8997L7.9508 59.3642ZM21.1102 53.9134C16.1745 53.9134 11.4409 55.8741 7.9508 59.3642L11.4863 62.8997C14.0387 60.3473 17.5006 58.9134 21.1102 58.9134V53.9134ZM55.3306 53.9134H21.1102V58.9134H55.3306V53.9134ZM68.49 59.3642C64.9999 55.8741 60.2663 53.9134 55.3306 53.9134V58.9134C58.9403 58.9134 62.4021 60.3473 64.9545 62.8997L68.49 59.3642ZM73.9408 72.5236C73.9408 67.5878 71.9801 62.8543 68.49 59.3642L64.9545 62.8997C67.5069 65.4521 68.9408 68.9139 68.9408 72.5236H73.9408ZM73.9408 81.0787V72.5236H68.9408V81.0787H73.9408ZM72.4408 79.5787C73.2692 79.5787 73.9408 80.2502 73.9408 81.0787H68.9408C68.9408 83.0117 70.5078 84.5787 72.4408 84.5787V79.5787ZM70.9408 81.0787C70.9408 80.2502 71.6124 79.5787 72.4408 79.5787V84.5787C74.3738 84.5787 75.9408 83.0117 75.9408 81.0787H70.9408ZM70.9408 72.5236V81.0787H75.9408V72.5236H70.9408ZM66.3687 61.4855C69.2962 64.413 70.9408 68.3835 70.9408 72.5236H75.9408C75.9408 67.0574 73.7694 61.8151 69.9042 57.9499L66.3687 61.4855ZM55.3306 56.9134C59.4707 56.9134 63.4412 58.558 66.3687 61.4855L69.9042 57.95C66.0391 54.0848 60.7968 51.9134 55.3306 51.9134V56.9134ZM21.1102 56.9134H55.3306V51.9134H21.1102V56.9134Z" fill="#BD8B13"/>
</svg>
