<svg width="102" height="85" viewBox="0 0 102 85" fill="none" xmlns="http://www.w3.org/2000/svg">
<path fill-rule="evenodd" clip-rule="evenodd" d="M22.1102 21.1102C22.1102 12.2128 29.323 5 38.2204 5C47.1178 5 54.3306 12.2128 54.3306 21.1102C54.3306 30.0077 47.1178 37.2204 38.2204 37.2204C29.323 37.2204 22.1102 30.0077 22.1102 21.1102ZM38.2204 3C28.2184 3 20.1102 11.1082 20.1102 21.1102C20.1102 31.1122 28.2184 39.2204 38.2204 39.2204C48.2224 39.2204 56.3306 31.1122 56.3306 21.1102C56.3306 11.1082 48.2224 3 38.2204 3ZM21.1102 54.3305C16.3071 54.3305 11.7007 56.2386 8.30436 59.6349C4.90804 63.0312 3 67.6376 3 72.4408V80.9959C3 81.5482 3.44772 81.9959 4 81.9959C4.55228 81.9959 5 81.5482 5 80.9959V72.4408C5 68.1681 6.69732 64.0704 9.71858 61.0491C12.7398 58.0279 16.8375 56.3305 21.1102 56.3305H55.3307C59.6034 56.3305 63.7011 58.0279 66.7223 61.0491C69.7436 64.0704 71.4409 68.1681 71.4409 72.4408V80.9959C71.4409 81.5482 71.8886 81.9959 72.4409 81.9959C72.9932 81.9959 73.4409 81.5482 73.4409 80.9959V72.4408C73.4409 67.6376 71.5329 63.0312 68.1365 59.6349C64.7402 56.2386 60.1338 54.3305 55.3307 54.3305H21.1102ZM84.3049 55.6364C84.4429 55.1016 84.9884 54.7801 85.5231 54.9181C89.4083 55.9213 92.8504 58.1864 95.3088 61.3577C97.7672 64.5291 99.1028 68.4271 99.1058 72.4398V72.4405V80.9956C99.1058 81.5479 98.6581 81.9956 98.1058 81.9956C97.5535 81.9956 97.1058 81.5479 97.1058 80.9956V72.4413C97.1031 68.8717 95.9151 65.4042 93.7281 62.5831C91.5412 59.7619 88.4793 57.747 85.0231 56.8546C84.4884 56.7165 84.1668 56.1711 84.3049 55.6364ZM68.4115 3.58683C67.8764 3.44984 67.3317 3.77251 67.1947 4.30754C67.0577 4.84257 67.3804 5.38734 67.9154 5.52433C71.3808 6.4116 74.4523 8.42699 76.6457 11.2528C78.8391 14.0785 80.0296 17.554 80.0296 21.1311C80.0296 24.7083 78.8391 28.1837 76.6457 31.0095C74.4523 33.8352 71.3808 35.8506 67.9154 36.7379C67.3804 36.8749 67.0577 37.4197 67.1947 37.9547C67.3317 38.4897 67.8764 38.8124 68.4115 38.6754C72.307 37.678 75.7599 35.4124 78.2256 32.2358C80.6913 29.0592 82.0296 25.1524 82.0296 21.1311C82.0296 17.1099 80.6913 13.203 78.2256 10.0264C75.7598 6.84984 72.307 4.58425 68.4115 3.58683Z" fill="#BD8B13"/>
<path d="M8.30436 59.6349L10.0721 61.4027L10.0721 61.4027L8.30436 59.6349ZM9.71858 61.0491L7.95081 59.2814L7.95081 59.2814L9.71858 61.0491ZM85.5231 54.9181L86.1481 52.4975H86.1481L85.5231 54.9181ZM99.1058 72.4398H101.606V72.4379L99.1058 72.4398ZM97.1058 72.4413H99.6058V72.4394L97.1058 72.4413ZM93.7281 62.5831L95.704 61.0514V61.0514L93.7281 62.5831ZM85.0231 56.8546L84.3981 59.2752L84.3981 59.2752L85.0231 56.8546ZM67.1947 4.30754L64.7728 3.68745V3.68745L67.1947 4.30754ZM68.4115 3.58683L69.0316 1.16495L69.0316 1.16495L68.4115 3.58683ZM67.9154 5.52433L68.5355 3.10245V3.10245L67.9154 5.52433ZM67.9154 36.7379L67.2953 34.316V34.316L67.9154 36.7379ZM68.4115 38.6754L67.7914 36.2535H67.7914L68.4115 38.6754ZM78.2256 32.2358L80.2004 33.7687L78.2256 32.2358ZM78.2256 10.0264L80.2004 8.49349L80.2004 8.49348L78.2256 10.0264ZM38.2204 2.5C27.9423 2.5 19.6102 10.8321 19.6102 21.1102H24.6102C24.6102 13.5935 30.7037 7.5 38.2204 7.5V2.5ZM56.8306 21.1102C56.8306 10.8321 48.4985 2.5 38.2204 2.5V7.5C45.7371 7.5 51.8306 13.5935 51.8306 21.1102H56.8306ZM38.2204 39.7204C48.4985 39.7204 56.8306 31.3884 56.8306 21.1102H51.8306C51.8306 28.6269 45.7371 34.7204 38.2204 34.7204V39.7204ZM19.6102 21.1102C19.6102 31.3884 27.9423 39.7204 38.2204 39.7204V34.7204C30.7037 34.7204 24.6102 28.6269 24.6102 21.1102H19.6102ZM22.6102 21.1102C22.6102 12.4889 29.5991 5.5 38.2204 5.5V0.5C26.8377 0.5 17.6102 9.72751 17.6102 21.1102H22.6102ZM38.2204 36.7204C29.5991 36.7204 22.6102 29.7315 22.6102 21.1102H17.6102C17.6102 32.4929 26.8377 41.7204 38.2204 41.7204V36.7204ZM53.8306 21.1102C53.8306 29.7315 46.8417 36.7204 38.2204 36.7204V41.7204C49.6031 41.7204 58.8306 32.4929 58.8306 21.1102H53.8306ZM38.2204 5.5C46.8417 5.5 53.8306 12.4889 53.8306 21.1102H58.8306C58.8306 9.72751 49.6031 0.5 38.2204 0.5V5.5ZM10.0721 61.4027C12.9996 58.4752 16.9701 56.8305 21.1102 56.8305V51.8305C15.6441 51.8305 10.4018 54.002 6.53659 57.8671L10.0721 61.4027ZM5.5 72.4408C5.5 68.3007 7.14464 64.3302 10.0721 61.4027L6.5366 57.8671C2.67143 61.7323 0.5 66.9746 0.5 72.4408H5.5ZM5.5 80.9959V72.4408H0.5V80.9959H5.5ZM4 79.4959C4.82843 79.4959 5.5 80.1675 5.5 80.9959H0.5C0.5 82.9289 2.067 84.4959 4 84.4959V79.4959ZM2.5 80.9959C2.5 80.1675 3.17157 79.4959 4 79.4959V84.4959C5.933 84.4959 7.5 82.9289 7.5 80.9959H2.5ZM2.5 72.4408V80.9959H7.5V72.4408H2.5ZM7.95081 59.2814C4.46072 62.7715 2.5 67.505 2.5 72.4408H7.5C7.5 68.8311 8.93393 65.3693 11.4863 62.8169L7.95081 59.2814ZM21.1102 53.8305C16.1745 53.8305 11.4409 55.7913 7.95081 59.2814L11.4863 62.8169C14.0388 60.2645 17.5006 58.8305 21.1102 58.8305V53.8305ZM55.3307 53.8305H21.1102V58.8305H55.3307V53.8305ZM68.4901 59.2814C65 55.7913 60.2664 53.8305 55.3307 53.8305V58.8305C58.9403 58.8305 62.4021 60.2645 64.9546 62.8169L68.4901 59.2814ZM73.9409 72.4408C73.9409 67.505 71.9802 62.7715 68.4901 59.2814L64.9546 62.8169C67.507 65.3693 68.9409 68.8311 68.9409 72.4408H73.9409ZM73.9409 80.9959V72.4408H68.9409V80.9959H73.9409ZM72.4409 79.4959C73.2693 79.4959 73.9409 80.1675 73.9409 80.9959H68.9409C68.9409 82.9289 70.5079 84.4959 72.4409 84.4959V79.4959ZM70.9409 80.9959C70.9409 80.1675 71.6125 79.4959 72.4409 79.4959V84.4959C74.3739 84.4959 75.9409 82.9289 75.9409 80.9959H70.9409ZM70.9409 72.4408V80.9959H75.9409V72.4408H70.9409ZM66.3688 61.4027C69.2962 64.3302 70.9409 68.3007 70.9409 72.4408H75.9409C75.9409 66.9746 73.7695 61.7323 69.9043 57.8671L66.3688 61.4027ZM55.3307 56.8305C59.4708 56.8305 63.4413 58.4752 66.3688 61.4027L69.9043 57.8671C66.0391 54.002 60.7968 51.8305 55.3307 51.8305V56.8305ZM21.1102 56.8305H55.3307V51.8305H21.1102V56.8305ZM86.1481 52.4975C84.2765 52.0143 82.3675 53.1397 81.8843 55.0114L86.7255 56.2614C86.5184 57.0635 85.7002 57.5458 84.8981 57.3387L86.1481 52.4975ZM97.2847 59.8261C94.4869 56.2169 90.5697 53.6392 86.1481 52.4975L84.8981 57.3387C88.247 58.2034 91.2139 60.1558 93.333 62.8894L97.2847 59.8261ZM101.606 72.4379C101.602 67.8713 100.082 63.4352 97.2847 59.8261L93.333 62.8894C95.452 65.623 96.6032 68.9829 96.6058 72.4416L101.606 72.4379ZM101.606 72.4405V72.4398H96.6058V72.4405H101.606ZM101.606 80.9956V72.4405H96.6058V80.9956H101.606ZM98.1058 84.4956C100.039 84.4956 101.606 82.9286 101.606 80.9956H96.6058C96.6058 80.1672 97.2774 79.4956 98.1058 79.4956V84.4956ZM94.6058 80.9956C94.6058 82.9286 96.1728 84.4956 98.1058 84.4956V79.4956C98.9342 79.4956 99.6058 80.1672 99.6058 80.9956H94.6058ZM94.6058 72.4413V80.9956H99.6058V72.4413H94.6058ZM91.7523 64.1147C93.5998 66.4981 94.6035 69.4275 94.6058 72.4431L99.6058 72.4394C99.6027 68.316 98.2303 64.3103 95.704 61.0514L91.7523 64.1147ZM84.3981 59.2752C87.318 60.0291 89.9047 61.7314 91.7523 64.1147L95.704 61.0514C93.1777 57.7925 89.6406 55.4649 85.6481 54.434L84.3981 59.2752ZM81.8843 55.0114C81.401 56.883 82.5265 58.792 84.3981 59.2752L85.6481 54.434C86.4502 54.6411 86.9326 55.4592 86.7255 56.2614L81.8843 55.0114ZM69.6165 4.92763C69.4111 5.73018 68.5939 6.21418 67.7914 6.0087L69.0316 1.16495C67.159 0.685498 65.2523 1.81484 64.7728 3.68745L69.6165 4.92763ZM68.5355 3.10245C69.338 3.30794 69.822 4.12511 69.6165 4.92763L64.7728 3.68745C64.2934 5.56002 65.4227 7.46674 67.2953 7.9462L68.5355 3.10245ZM78.6205 9.71983C76.0868 6.45556 72.5386 4.12742 68.5355 3.10245L67.2953 7.9462C70.2229 8.69579 72.8178 10.3984 74.6708 12.7857L78.6205 9.71983ZM82.5296 21.1311C82.5296 16.9988 81.1543 12.9841 78.6205 9.71983L74.6708 12.7857C76.5238 15.173 77.5296 18.1091 77.5296 21.1311H82.5296ZM78.6205 32.5424C81.1543 29.2781 82.5296 25.2634 82.5296 21.1311H77.5296C77.5296 24.1532 76.5238 27.0893 74.6708 29.4765L78.6205 32.5424ZM68.5355 39.1598C72.5386 38.1348 76.0868 35.8067 78.6205 32.5424L74.6708 29.4765C72.8178 31.8638 70.2229 33.5664 67.2953 34.316L68.5355 39.1598ZM69.6165 37.3346C69.822 38.1371 69.338 38.9543 68.5355 39.1598L67.2953 34.316C65.4227 34.7955 64.2933 36.7022 64.7728 38.5748L69.6165 37.3346ZM67.7914 36.2535C68.5939 36.048 69.4111 36.532 69.6165 37.3346L64.7728 38.5748C65.2522 40.4474 67.159 41.5767 69.0316 41.0973L67.7914 36.2535ZM76.2507 30.7029C74.1254 33.4409 71.1492 35.3938 67.7914 36.2535L69.0316 41.0973C73.4649 39.9622 77.3944 37.3838 80.2004 33.7687L76.2507 30.7029ZM79.5296 21.1311C79.5296 24.5972 78.376 27.9648 76.2507 30.7029L80.2004 33.7687C83.0065 30.1536 84.5296 25.7075 84.5296 21.1311H79.5296ZM76.2507 11.5593C78.376 14.2974 79.5296 17.665 79.5296 21.1311H84.5296C84.5296 16.5548 83.0065 12.1086 80.2004 8.49349L76.2507 11.5593ZM67.7914 6.0087C71.1492 6.86844 74.1254 8.82128 76.2507 11.5594L80.2004 8.49348C77.3943 4.87841 73.4649 2.30007 69.0316 1.16495L67.7914 6.0087Z" fill="#BD8B13"/>
</svg>
