<svg width="17" height="24" viewBox="0 0 17 24" fill="none" xmlns="http://www.w3.org/2000/svg">
<path fill-rule="evenodd" clip-rule="evenodd" d="M8.25977 0C7.1989 0 6.18148 0.421427 5.43134 1.17157C4.68119 1.92172 4.25977 2.93913 4.25977 4V12C4.25977 13.0609 4.68119 14.0783 5.43134 14.8284C6.18148 15.5786 7.1989 16 8.25977 16C9.32063 16 10.338 15.5786 11.0882 14.8284C11.8383 14.0783 12.2598 13.0609 12.2598 12V4C12.2598 2.93913 11.8383 1.92172 11.0882 1.17157C10.338 0.421427 9.32063 0 8.25977 0ZM6.84555 2.58579C7.22062 2.21071 7.72933 2 8.25977 2C8.7902 2 9.29891 2.21071 9.67398 2.58579C10.0491 2.96086 10.2598 3.46957 10.2598 4V12C10.2598 12.5304 10.0491 13.0391 9.67398 13.4142C9.29891 13.7893 8.7902 14 8.25977 14C7.72933 14 7.22062 13.7893 6.84555 13.4142C6.47048 13.0391 6.25977 12.5304 6.25977 12V4C6.25977 3.46957 6.47048 2.96086 6.84555 2.58579ZM2.25977 10C2.25977 9.44771 1.81205 9 1.25977 9C0.707481 9 0.259766 9.44771 0.259766 10V12C0.259766 14.1217 1.10262 16.1566 2.60291 17.6569C3.86554 18.9195 5.50677 19.7165 7.25977 19.9373V22H4.25977C3.70748 22 3.25977 22.4477 3.25977 23C3.25977 23.5523 3.70748 24 4.25977 24H8.25977H12.2598C12.8121 24 13.2598 23.5523 13.2598 23C13.2598 22.4477 12.8121 22 12.2598 22H9.25977V19.9373C11.0128 19.7165 12.654 18.9195 13.9166 17.6569C15.4169 16.1566 16.2598 14.1217 16.2598 12V10C16.2598 9.44771 15.8121 9 15.2598 9C14.7075 9 14.2598 9.44771 14.2598 10V12C14.2598 13.5913 13.6276 15.1174 12.5024 16.2426C11.3772 17.3679 9.85106 18 8.25977 18C6.66847 18 5.14234 17.3679 4.01712 16.2426C2.89191 15.1174 2.25977 13.5913 2.25977 12V10Z" fill="#154734"/>
</svg>
