<svg width="20" height="22" viewBox="0 0 20 22" fill="none" xmlns="http://www.w3.org/2000/svg">
<path fill-rule="evenodd" clip-rule="evenodd" d="M7 6C7 4.34315 8.34315 3 10 3C11.6569 3 13 4.34315 13 6C13 7.65685 11.6569 9 10 9C8.34315 9 7 7.65685 7 6ZM10 1C7.23858 1 5 3.23858 5 6C5 8.76142 7.23858 11 10 11C12.7614 11 15 8.76142 15 6C15 3.23858 12.7614 1 10 1ZM6 13C4.67392 13 3.40215 13.5268 2.46447 14.4645C1.52678 15.4021 1 16.6739 1 18V20C1 20.5523 1.44772 21 2 21C2.55228 21 3 20.5523 3 20V18C3 17.2043 3.31607 16.4413 3.87868 15.8787C4.44129 15.3161 5.20435 15 6 15H14C14.7956 15 15.5587 15.3161 16.1213 15.8787C16.6839 16.4413 17 17.2044 17 18V20C17 20.5523 17.4477 21 18 21C18.5523 21 19 20.5523 19 20V18C19 16.6739 18.4732 15.4021 17.5355 14.4645C16.5979 13.5268 15.3261 13 14 13H6Z" fill="white"/>
<path d="M2.46447 14.4645L2.81802 14.818L2.81802 14.818L2.46447 14.4645ZM3.87868 15.8787L3.52513 15.5251V15.5251L3.87868 15.8787ZM17.5355 14.4645L17.8891 14.1109L17.5355 14.4645ZM10 2.5C8.067 2.5 6.5 4.067 6.5 6H7.5C7.5 4.61929 8.61929 3.5 10 3.5V2.5ZM13.5 6C13.5 4.067 11.933 2.5 10 2.5V3.5C11.3807 3.5 12.5 4.61929 12.5 6H13.5ZM10 9.5C11.933 9.5 13.5 7.933 13.5 6H12.5C12.5 7.38071 11.3807 8.5 10 8.5V9.5ZM6.5 6C6.5 7.933 8.067 9.5 10 9.5V8.5C8.61929 8.5 7.5 7.38071 7.5 6H6.5ZM5.5 6C5.5 3.51472 7.51472 1.5 10 1.5V0.5C6.96243 0.5 4.5 2.96243 4.5 6H5.5ZM10 10.5C7.51472 10.5 5.5 8.48528 5.5 6H4.5C4.5 9.03757 6.96243 11.5 10 11.5V10.5ZM14.5 6C14.5 8.48528 12.4853 10.5 10 10.5V11.5C13.0376 11.5 15.5 9.03757 15.5 6H14.5ZM10 1.5C12.4853 1.5 14.5 3.51472 14.5 6H15.5C15.5 2.96243 13.0376 0.5 10 0.5V1.5ZM2.81802 14.818C3.66193 13.9741 4.80653 13.5 6 13.5V12.5C4.54131 12.5 3.14236 13.0795 2.11091 14.1109L2.81802 14.818ZM1.5 18C1.5 16.8065 1.97411 15.6619 2.81802 14.818L2.11091 14.1109C1.07946 15.1424 0.5 16.5413 0.5 18H1.5ZM1.5 20V18H0.5V20H1.5ZM2 20.5C1.72386 20.5 1.5 20.2761 1.5 20H0.5C0.5 20.8284 1.17157 21.5 2 21.5V20.5ZM2.5 20C2.5 20.2761 2.27614 20.5 2 20.5V21.5C2.82843 21.5 3.5 20.8284 3.5 20H2.5ZM2.5 18V20H3.5V18H2.5ZM3.52513 15.5251C2.86875 16.1815 2.5 17.0717 2.5 18H3.5C3.5 17.337 3.76339 16.7011 4.23223 16.2322L3.52513 15.5251ZM6 14.5C5.07174 14.5 4.1815 14.8687 3.52513 15.5251L4.23223 16.2322C4.70107 15.7634 5.33696 15.5 6 15.5V14.5ZM14 14.5H6V15.5H14V14.5ZM16.4749 15.5251C15.8185 14.8687 14.9283 14.5 14 14.5V15.5C14.663 15.5 15.2989 15.7634 15.7678 16.2322L16.4749 15.5251ZM17.5 18C17.5 17.0717 17.1313 16.1815 16.4749 15.5251L15.7678 16.2322C16.2366 16.7011 16.5 17.337 16.5 18H17.5ZM17.5 20V18H16.5V20H17.5ZM18 20.5C17.7239 20.5 17.5 20.2761 17.5 20H16.5C16.5 20.8284 17.1716 21.5 18 21.5V20.5ZM18.5 20C18.5 20.2761 18.2761 20.5 18 20.5V21.5C18.8284 21.5 19.5 20.8284 19.5 20H18.5ZM18.5 18V20H19.5V18H18.5ZM17.182 14.818C18.0259 15.6619 18.5 16.8065 18.5 18H19.5C19.5 16.5413 18.9205 15.1424 17.8891 14.1109L17.182 14.818ZM14 13.5C15.1935 13.5 16.3381 13.9741 17.182 14.818L17.8891 14.1109C16.8576 13.0795 15.4587 12.5 14 12.5V13.5ZM6 13.5H14V12.5H6V13.5Z" fill="white"/>
</svg>
